# xmcd CD database file
#
# Track frame offsets:
#	150
#	23465
#	42017
#	62430
#	79417
#	96452
#	115587
#	133777
#	150835
#	165077
#	181030
#	204420
#	222407
#
# Disc length: 3245 seconds
#
# Revision: 5
# Processed by: cddbd v1.5.2PL0 Copyright (c) Steve Scherf et al.
# Submitted via: CDex 1.70beta2
#
DISCID=960cab0d
DTITLE=EUROPE - THE FINAL COUNTDOWN
DYEAR=1986
DGENRE=Hard Rock
TTITLE0=The Final Countdown
TTITLE1=Rock The Night
TTITLE2=Carrie
TTITLE3=Danger On The Track
TTITLE4=Ninja
TTITLE5=Cherokee
TTITLE6=Time Has Come
TTITLE7=Heart Of Stone
TTITLE8=On The Loose
TTITLE9=Love Chaser
TTITLE10=The Final Countdown (Live) [Bonus Track]
TTITLE11=Danger On The Track (Live) [Bonus Track]
TTITLE12=Carrie (Live) [Bonus Track]
EXTD=YEAR: 1986
EXTT0=
EXTT1=
EXTT2=
EXTT3=
EXTT4=
EXTT5=
EXTT6=
EXTT7=
EXTT8=
EXTT9=
EXTT10=
EXTT11=
EXTT12=
PLAYORDER=
